<svg height="24" viewBox="0 0 36 24" width="36" xmlns="http://www.w3.org/2000/svg"><g><path d="m1.35849057 3.05660377h33.28301883c.7498868 0 1.3584906-.60860377 1.3584906-1.35849056s-.6086038-1.35849057-1.3584906-1.35849057h-33.28301883c-.7498868 0-1.35849057.60860378-1.35849057 1.35849057s.60860377 1.35849056 1.35849057 1.35849056z"/><path d="m1.35849057 13.245283h33.28301883c.7498868 0 1.3584906-.6086038 1.3584906-1.3584905 0-.7498868-.6086038-1.3584906-1.3584906-1.3584906h-33.28301883c-.7498868 0-1.35849057.6086038-1.35849057 1.3584906 0 .7498867.60860377 1.3584905 1.35849057 1.3584905z"/><path d="m1.35849057 23.4339623h33.28301883c.7498868 0 1.3584906-.6086038 1.3584906-1.3584906s-.6086038-1.3584906-1.3584906-1.3584906h-33.28301883c-.7498868 0-1.35849057.6086038-1.35849057 1.3584906s.60860377 1.3584906 1.35849057 1.3584906z"/></g></svg>