<?xml version="1.0" encoding="UTF-8"?>
<svg width="30px" height="28px" viewBox="0 0 30 28" version="1.1" xmlns="http://www.w3.org/2000/svg" xmlns:xlink="http://www.w3.org/1999/xlink">
    <!-- Generator: Sketch 50.2 (55047) - http://www.bohemiancoding.com/sketch -->
    <title>cross</title>
    <desc>Created with Sketch.</desc>
    <defs></defs>
    <g id="Mobile" stroke="none" stroke-width="1" fill="none" fill-rule="evenodd">
        <g id="Home-1-Menu" transform="translate(-468.000000, -49.000000)" fill="#474342" fill-rule="nonzero">
            <g id="cross" transform="translate(468.000000, 49.000000)">
                <path d="M17.3956966,13.6655608 L28.8040578,2.76355068 C29.4656699,2.13130371 29.4656699,1.10643219 28.8040578,0.474185225 C28.1432928,-0.158061742 27.0691262,-0.158061742 26.4083612,0.474185225 L15,11.3761953 L3.59333305,0.474185225 C2.93256809,-0.158061742 1.85924859,-0.158061742 1.19763649,0.474185225 C0.536024397,1.10643219 0.536024397,2.13130371 1.19763649,2.76355068 L12.6043034,13.6655608 L0.496209073,25.2362469 C-0.165403024,25.8684939 -0.165403024,26.8933654 0.496209073,27.5256124 C0.826591554,27.8421406 1.26032445,28 1.69405735,28 C2.12779025,28 2.56152315,27.8421406 2.89190563,27.5256124 L15,15.9549262 L27.1080944,27.5256124 C27.439324,27.8421406 27.8722098,28 28.3059426,28 C28.7396755,28 29.1725613,27.8421406 29.5037909,27.5256124 C30.165403,26.8933654 30.165403,25.8684939 29.5037909,25.2362469 L17.3956966,13.6655608 Z" id="Shape"></path>
            </g>
        </g>
    </g>
</svg>